<svg xmlns="http://www.w3.org/2000/svg" xmlns:xlink="http://www.w3.org/1999/xlink" contentStyleType="text/css" height="793px" preserveAspectRatio="none" style="width:1327px;height:793px;background:#FFFFFF;" version="1.1" viewBox="0 0 1327 793" width="1327px" zoomAndPan="magnify"><defs/><g><text fill="#000000" font-family="sans-serif" font-size="14" font-weight="bold" lengthAdjust="spacing" textLength="279.9316" x="524.6921" y="27.9951">SIWF Integration for an Application</text><rect fill="none" height="436.6641" style="stroke:#000000;stroke-width:1.5;" width="1310.3159" x="10" y="304.3906"/><line style="stroke:#181818;stroke-width:0.5;stroke-dasharray:5.0,5.0;" x1="75" x2="75" y1="73.5938" y2="758.0547"/><line style="stroke:#181818;stroke-width:0.5;stroke-dasharray:5.0,5.0;" x1="424.8784" x2="424.8784" y1="73.5938" y2="758.0547"/><line style="stroke:#181818;stroke-width:0.5;stroke-dasharray:5.0,5.0;" x1="990.2964" x2="990.2964" y1="73.5938" y2="758.0547"/><line style="stroke:#181818;stroke-width:0.5;stroke-dasharray:5.0,5.0;" x1="1265.6655" x2="1265.6655" y1="73.5938" y2="758.0547"/><rect fill="#E2E2F0" height="30.2969" rx="2.5" ry="2.5" style="stroke:#181818;stroke-width:0.5;" width="111.5967" x="20" y="42.2969"/><text fill="#000000" font-family="sans-serif" font-size="14" lengthAdjust="spacing" textLength="97.5967" x="27" y="62.292">Website / App</text><rect fill="#E2E2F0" height="30.2969" rx="2.5" ry="2.5" style="stroke:#181818;stroke-width:0.5;" width="111.5967" x="20" y="757.0547"/><text fill="#000000" font-family="sans-serif" font-size="14" lengthAdjust="spacing" textLength="97.5967" x="27" y="777.0498">Website / App</text><rect fill="#E2E2F0" height="30.2969" rx="2.5" ry="2.5" style="stroke:#181818;stroke-width:0.5;" width="157.0352" x="346.8784" y="42.2969"/><text fill="#000000" font-family="sans-serif" font-size="14" lengthAdjust="spacing" textLength="143.0352" x="353.8784" y="62.292">Application Backend</text><rect fill="#E2E2F0" height="30.2969" rx="2.5" ry="2.5" style="stroke:#181818;stroke-width:0.5;" width="157.0352" x="346.8784" y="757.0547"/><text fill="#000000" font-family="sans-serif" font-size="14" lengthAdjust="spacing" textLength="143.0352" x="353.8784" y="777.0498">Application Backend</text><rect fill="#E2E2F0" height="30.2969" rx="2.5" ry="2.5" style="stroke:#181818;stroke-width:0.5;" width="212.3242" x="884.2964" y="42.2969"/><text fill="#000000" font-family="sans-serif" font-size="14" lengthAdjust="spacing" textLength="198.3242" x="891.2964" y="62.292">SIWF Authentication Service</text><rect fill="#E2E2F0" height="30.2969" rx="2.5" ry="2.5" style="stroke:#181818;stroke-width:0.5;" width="212.3242" x="884.2964" y="757.0547"/><text fill="#000000" font-family="sans-serif" font-size="14" lengthAdjust="spacing" textLength="198.3242" x="891.2964" y="777.0498">SIWF Authentication Service</text><rect fill="#E2E2F0" height="30.2969" rx="2.5" ry="2.5" style="stroke:#181818;stroke-width:0.5;" width="87.6504" x="1222.6655" y="42.2969"/><text fill="#000000" font-family="sans-serif" font-size="14" lengthAdjust="spacing" textLength="73.6504" x="1229.6655" y="62.292">Frequency</text><rect fill="#E2E2F0" height="30.2969" rx="2.5" ry="2.5" style="stroke:#181818;stroke-width:0.5;" width="87.6504" x="1222.6655" y="757.0547"/><text fill="#000000" font-family="sans-serif" font-size="14" lengthAdjust="spacing" textLength="73.6504" x="1229.6655" y="777.0498">Frequency</text><line style="stroke:#181818;stroke-width:1.0;" x1="425.396" x2="467.396" y1="104.7266" y2="104.7266"/><line style="stroke:#181818;stroke-width:1.0;" x1="467.396" x2="467.396" y1="104.7266" y2="117.7266"/><line style="stroke:#181818;stroke-width:1.0;" x1="426.396" x2="467.396" y1="117.7266" y2="117.7266"/><polygon fill="#181818" points="436.396,113.7266,426.396,117.7266,436.396,121.7266,432.396,117.7266" style="stroke:#181818;stroke-width:1.0;"/><text fill="#000000" font-family="sans-serif" font-size="13" font-weight="bold" lengthAdjust="spacing" textLength="9.0454" x="432.396" y="99.6606">1</text><text fill="#000000" font-family="sans-serif" font-size="13" lengthAdjust="spacing" textLength="266.0239" x="445.4414" y="99.6606">Generate &amp; Sign Request Payload (once)</text><line style="stroke:#181818;stroke-width:1.0;" x1="425.396" x2="467.396" y1="146.8594" y2="146.8594"/><line style="stroke:#181818;stroke-width:1.0;" x1="467.396" x2="467.396" y1="146.8594" y2="159.8594"/><line style="stroke:#181818;stroke-width:1.0;" x1="426.396" x2="467.396" y1="159.8594" y2="159.8594"/><polygon fill="#181818" points="436.396,155.8594,426.396,159.8594,436.396,163.8594,432.396,159.8594" style="stroke:#181818;stroke-width:1.0;"/><text fill="#000000" font-family="sans-serif" font-size="13" font-weight="bold" lengthAdjust="spacing" textLength="9.0454" x="432.396" y="141.7935">2</text><text fill="#000000" font-family="sans-serif" font-size="13" lengthAdjust="spacing" textLength="363.1304" x="445.4414" y="141.7935">Generate Authentication URL with correct callback path</text><polygon fill="#181818" points="86.7983,184.9922,76.7983,188.9922,86.7983,192.9922,82.7983,188.9922" style="stroke:#181818;stroke-width:1.0;"/><line style="stroke:#181818;stroke-width:1.0;" x1="80.7983" x2="424.396" y1="188.9922" y2="188.9922"/><text fill="#000000" font-family="sans-serif" font-size="13" font-weight="bold" lengthAdjust="spacing" textLength="9.0454" x="92.7983" y="183.9263">3</text><text fill="#000000" font-family="sans-serif" font-size="13" lengthAdjust="spacing" textLength="250.7451" x="105.8438" y="183.9263">Display Sign In With Frequency Button</text><polygon fill="#181818" points="978.4585,214.125,988.4585,218.125,978.4585,222.125,982.4585,218.125" style="stroke:#181818;stroke-width:1.0;"/><line style="stroke:#181818;stroke-width:1.0;" x1="75.7983" x2="984.4585" y1="218.125" y2="218.125"/><text fill="#000000" font-family="sans-serif" font-size="13" font-weight="bold" lengthAdjust="spacing" textLength="9.0454" x="82.7983" y="213.0591">4</text><text fill="#000000" font-family="sans-serif" font-size="13" lengthAdjust="spacing" textLength="645.7471" x="95.8438" y="213.0591">Click Sign In With Frequency Button (GET /&lt;API_BASE&gt;/start with base64url encoded SiwfRequest)</text><line style="stroke:#181818;stroke-width:1.0;" x1="990.4585" x2="1032.4585" y1="247.2578" y2="247.2578"/><line style="stroke:#181818;stroke-width:1.0;" x1="1032.4585" x2="1032.4585" y1="247.2578" y2="260.2578"/><line style="stroke:#181818;stroke-width:1.0;" x1="991.4585" x2="1032.4585" y1="260.2578" y2="260.2578"/><polygon fill="#181818" points="1001.4585,256.2578,991.4585,260.2578,1001.4585,264.2578,997.4585,260.2578" style="stroke:#181818;stroke-width:1.0;"/><text fill="#000000" font-family="sans-serif" font-size="13" font-weight="bold" lengthAdjust="spacing" textLength="9.0454" x="997.4585" y="242.1919">5</text><text fill="#000000" font-family="sans-serif" font-size="13" lengthAdjust="spacing" textLength="248.9868" x="1010.5039" y="242.1919">User Authentication and Authorization</text><polygon fill="#181818" points="86.7983,285.3906,76.7983,289.3906,86.7983,293.3906,82.7983,289.3906" style="stroke:#181818;stroke-width:1.0;"/><line style="stroke:#181818;stroke-width:1.0;" x1="80.7983" x2="989.4585" y1="289.3906" y2="289.3906"/><text fill="#000000" font-family="sans-serif" font-size="13" font-weight="bold" lengthAdjust="spacing" textLength="9.0454" x="92.7983" y="284.3247">6</text><text fill="#000000" font-family="sans-serif" font-size="13" lengthAdjust="spacing" textLength="578.5" x="105.8438" y="284.3247">Redirect to Callback URL from the SiwfRequest with authorizationCode parameter added</text><path d="M10,304.3906 L74.4429,304.3906 L74.4429,311.5234 L64.4429,321.5234 L10,321.5234 L10,304.3906 " fill="#EEEEEE" style="stroke:#000000;stroke-width:1.5;"/><rect fill="none" height="436.6641" style="stroke:#000000;stroke-width:1.5;" width="1310.3159" x="10" y="304.3906"/><text fill="#000000" font-family="sans-serif" font-size="13" font-weight="bold" lengthAdjust="spacing" textLength="19.4429" x="25" y="317.4575">alt</text><text fill="#000000" font-family="sans-serif" font-size="11" font-weight="bold" lengthAdjust="spacing" textLength="245.5449" x="89.4429" y="316.6011">[Application Backend resolves payload]</text><polygon fill="#181818" points="413.396,338.6563,423.396,342.6563,413.396,346.6563,417.396,342.6563" style="stroke:#181818;stroke-width:1.0;"/><line style="stroke:#181818;stroke-width:1.0;" x1="75.7983" x2="419.396" y1="342.6563" y2="342.6563"/><text fill="#000000" font-family="sans-serif" font-size="13" font-weight="bold" lengthAdjust="spacing" textLength="9.0454" x="82.7983" y="337.5903">7</text><text fill="#000000" font-family="sans-serif" font-size="13" lengthAdjust="spacing" textLength="312.5522" x="95.8438" y="337.5903">GET against callback url with authoricationCode</text><polygon fill="#181818" points="978.4585,367.7891,988.4585,371.7891,978.4585,375.7891,982.4585,371.7891" style="stroke:#181818;stroke-width:1.0;"/><line style="stroke:#181818;stroke-width:1.0;" x1="425.396" x2="984.4585" y1="371.7891" y2="371.7891"/><text fill="#000000" font-family="sans-serif" font-size="13" font-weight="bold" lengthAdjust="spacing" textLength="9.0454" x="432.396" y="366.7231">8</text><text fill="#000000" font-family="sans-serif" font-size="13" lengthAdjust="spacing" textLength="528.0171" x="445.4414" y="366.7231">GET /&lt;API_BASE&gt;/api/payload trade authorizationCode for SiwfPayloadResponse</text><polygon fill="#181818" points="436.396,396.9219,426.396,400.9219,436.396,404.9219,432.396,400.9219" style="stroke:#181818;stroke-width:1.0;"/><line style="stroke:#181818;stroke-width:1.0;stroke-dasharray:2.0,2.0;" x1="430.396" x2="989.4585" y1="400.9219" y2="400.9219"/><text fill="#000000" font-family="sans-serif" font-size="13" font-weight="bold" lengthAdjust="spacing" textLength="9.0454" x="442.396" y="395.856">9</text><text fill="#000000" font-family="sans-serif" font-size="13" lengthAdjust="spacing" textLength="372.5376" x="455.4414" y="395.856">SiwfPayloadResponse {signed payloads and credentials}</text><polygon fill="#181818" points="86.7983,426.0547,76.7983,430.0547,86.7983,434.0547,82.7983,430.0547" style="stroke:#181818;stroke-width:1.0;"/><line style="stroke:#181818;stroke-width:1.0;" x1="80.7983" x2="424.396" y1="430.0547" y2="430.0547"/><text fill="#000000" font-family="sans-serif" font-size="13" font-weight="bold" lengthAdjust="spacing" textLength="18.0908" x="92.7983" y="424.9888">10</text><text fill="#000000" font-family="sans-serif" font-size="13" lengthAdjust="spacing" textLength="122.8462" x="114.8892" y="424.9888">Post sign in screen</text><polygon fill="#181818" points="1254.4907,455.1875,1264.4907,459.1875,1254.4907,463.1875,1258.4907,459.1875" style="stroke:#181818;stroke-width:1.0;"/><line style="stroke:#181818;stroke-width:1.0;" x1="425.396" x2="1260.4907" y1="459.1875" y2="459.1875"/><text fill="#000000" font-family="sans-serif" font-size="13" font-weight="bold" lengthAdjust="spacing" textLength="18.0908" x="432.396" y="454.1216">11</text><text fill="#000000" font-family="sans-serif" font-size="13" lengthAdjust="spacing" textLength="347.4009" x="454.4868" y="454.1216">If needed, submit required transactions to Frequency</text><polygon fill="#181818" points="436.396,484.3203,426.396,488.3203,436.396,492.3203,432.396,488.3203" style="stroke:#181818;stroke-width:1.0;"/><line style="stroke:#181818;stroke-width:1.0;stroke-dasharray:2.0,2.0;" x1="430.396" x2="1265.4907" y1="488.3203" y2="488.3203"/><text fill="#000000" font-family="sans-serif" font-size="13" font-weight="bold" lengthAdjust="spacing" textLength="18.0908" x="442.396" y="483.2544">12</text><text fill="#000000" font-family="sans-serif" font-size="13" lengthAdjust="spacing" textLength="117.4761" x="464.4868" y="483.2544">Transaction result</text><line style="stroke:#000000;stroke-width:1.0;stroke-dasharray:2.0,2.0;" x1="10" x2="1320.3159" y1="497.3203" y2="497.3203"/><text fill="#000000" font-family="sans-serif" font-size="11" font-weight="bold" lengthAdjust="spacing" textLength="187.8755" x="15" y="507.5308">[User Agent resolves payload]</text><line style="stroke:#181818;stroke-width:1.0;" x1="75.7983" x2="117.7983" y1="532.2578" y2="532.2578"/><line style="stroke:#181818;stroke-width:1.0;" x1="117.7983" x2="117.7983" y1="532.2578" y2="545.2578"/><line style="stroke:#181818;stroke-width:1.0;" x1="76.7983" x2="117.7983" y1="545.2578" y2="545.2578"/><polygon fill="#181818" points="86.7983,541.2578,76.7983,545.2578,86.7983,549.2578,82.7983,545.2578" style="stroke:#181818;stroke-width:1.0;"/><text fill="#000000" font-family="sans-serif" font-size="13" font-weight="bold" lengthAdjust="spacing" textLength="18.0908" x="82.7983" y="527.1919">13</text><text fill="#000000" font-family="sans-serif" font-size="13" lengthAdjust="spacing" textLength="224.6118" x="104.8892" y="527.1919">Pre-empted by OS (Universal Link)</text><polygon fill="#181818" points="978.4585,570.3906,988.4585,574.3906,978.4585,578.3906,982.4585,574.3906" style="stroke:#181818;stroke-width:1.0;"/><line style="stroke:#181818;stroke-width:1.0;" x1="75.7983" x2="984.4585" y1="574.3906" y2="574.3906"/><text fill="#000000" font-family="sans-serif" font-size="13" font-weight="bold" lengthAdjust="spacing" textLength="18.0908" x="82.7983" y="569.3247">14</text><text fill="#000000" font-family="sans-serif" font-size="13" lengthAdjust="spacing" textLength="528.0171" x="104.8892" y="569.3247">GET /&lt;API_BASE&gt;/api/payload trade authorizationCode for SiwfPayloadResponse</text><polygon fill="#181818" points="86.7983,599.5234,76.7983,603.5234,86.7983,607.5234,82.7983,603.5234" style="stroke:#181818;stroke-width:1.0;"/><line style="stroke:#181818;stroke-width:1.0;stroke-dasharray:2.0,2.0;" x1="80.7983" x2="989.4585" y1="603.5234" y2="603.5234"/><text fill="#000000" font-family="sans-serif" font-size="13" font-weight="bold" lengthAdjust="spacing" textLength="18.0908" x="92.7983" y="598.4575">15</text><text fill="#000000" font-family="sans-serif" font-size="13" lengthAdjust="spacing" textLength="372.5376" x="114.8892" y="598.4575">SiwfPayloadResponse {signed payloads and credentials}</text><line style="stroke:#181818;stroke-width:1.0;" x1="75.7983" x2="117.7983" y1="632.6563" y2="632.6563"/><line style="stroke:#181818;stroke-width:1.0;" x1="117.7983" x2="117.7983" y1="632.6563" y2="645.6563"/><line style="stroke:#181818;stroke-width:1.0;" x1="76.7983" x2="117.7983" y1="645.6563" y2="645.6563"/><polygon fill="#181818" points="86.7983,641.6563,76.7983,645.6563,86.7983,649.6563,82.7983,645.6563" style="stroke:#181818;stroke-width:1.0;"/><text fill="#000000" font-family="sans-serif" font-size="13" font-weight="bold" lengthAdjust="spacing" textLength="18.0908" x="82.7983" y="627.5903">16</text><text fill="#000000" font-family="sans-serif" font-size="13" lengthAdjust="spacing" textLength="122.8462" x="104.8892" y="627.5903">Post sign in screen</text><polygon fill="#181818" points="413.396,670.7891,423.396,674.7891,413.396,678.7891,417.396,674.7891" style="stroke:#181818;stroke-width:1.0;"/><line style="stroke:#181818;stroke-width:1.0;" x1="75.7983" x2="419.396" y1="674.7891" y2="674.7891"/><text fill="#000000" font-family="sans-serif" font-size="13" font-weight="bold" lengthAdjust="spacing" textLength="18.0908" x="82.7983" y="669.7231">17</text><text fill="#000000" font-family="sans-serif" font-size="13" lengthAdjust="spacing" textLength="85.5347" x="104.8892" y="669.7231">Sign in result</text><polygon fill="#181818" points="1254.4907,699.9219,1264.4907,703.9219,1254.4907,707.9219,1258.4907,703.9219" style="stroke:#181818;stroke-width:1.0;"/><line style="stroke:#181818;stroke-width:1.0;" x1="425.396" x2="1260.4907" y1="703.9219" y2="703.9219"/><text fill="#000000" font-family="sans-serif" font-size="13" font-weight="bold" lengthAdjust="spacing" textLength="18.0908" x="432.396" y="698.856">18</text><text fill="#000000" font-family="sans-serif" font-size="13" lengthAdjust="spacing" textLength="347.4009" x="454.4868" y="698.856">If needed, submit required transactions to Frequency</text><polygon fill="#181818" points="436.396,729.0547,426.396,733.0547,436.396,737.0547,432.396,733.0547" style="stroke:#181818;stroke-width:1.0;"/><line style="stroke:#181818;stroke-width:1.0;stroke-dasharray:2.0,2.0;" x1="430.396" x2="1265.4907" y1="733.0547" y2="733.0547"/><text fill="#000000" font-family="sans-serif" font-size="13" font-weight="bold" lengthAdjust="spacing" textLength="18.0908" x="442.396" y="727.9888">19</text><text fill="#000000" font-family="sans-serif" font-size="13" lengthAdjust="spacing" textLength="117.4761" x="464.4868" y="727.9888">Transaction result</text><!--SRC=[pLDBYnf14BxFhoWy18M8bv23147DxY8iH7J5OwZfgT76jhlJ3nSJyjzJtJEQMRERMo1phFwglaVL11aKGM-zsDx3GWVQEGpIQAYD0zGmjLP9aKkzmg8BKaYBEa1lIwMNWM2KC3r03n5V8ZgzC4Dn85rbd7q9ozJJ6FQammM-9dUIWZAylXbxx-XR92tE-RKKHO4n61sF9Rd23YTs30-aYNqGl8Ert6bOfGuVO8bdPR22lj621hVW6msRrICyox07OPmZ4K2WKYNx08jXdveZZk6pz5RXkU5PQDYcZgj4cCN0seg8mqdDw3a7SlWx5leFTqym-ZHTBhxEfkkxoSW7jjz8AT7Jnm_HAU0EKr75ivxhrjwWg5kQZITtQmTrbKl6oU-vaj79meegcGq60_EBn-I-TkO8FAHBqkZ0xg0v2-5C71ufC2zMhAj05U2L0m17tgWJyHKqkoY0lnHFsWGRnnrAxJjX9xDTJd7bpAssSNoR6LevQXaWE6I1VqfE9vwSjLUn8c-DzirOHo4w_Tep_F2yFaw-7Uzpii9HbS96vNzUTALibuQzf8QXrE0PHVhoN8enB6hGn9tLU_2nFCe0wHfu6rcrzYYIMfysSxsJhhwdtw2KR5IX8CKQcmFOiQAt0y_o70tfQ0FpbMVuieR-HiiJEOyA7gK-3Axe_pBaguqtKcxlAlzlyfhGFyvVLxy0]--></g></svg>
